<svg xmlns="http://www.w3.org/2000/svg" width="16.355" height="16.355" viewBox="0 0 16.355 16.355">
  <g id="Group_256" data-name="Group 256" transform="translate(16.355 16.355) rotate(180)">
    <path id="Path_359" data-name="Path 359" d="M9.541,14.992H1.363V1.363H9.541V3.748a.341.341,0,0,0,.341.341h.681a.341.341,0,0,0,.341-.341V1.363A1.363,1.363,0,0,0,9.541,0H1.363A1.363,1.363,0,0,0,0,1.363V14.992a1.363,1.363,0,0,0,1.363,1.363H9.541A1.363,1.363,0,0,0,10.9,14.992V12.607a.341.341,0,0,0-.341-.341H9.881a.341.341,0,0,0-.341.341Z" fill="#fff"/>
    <path id="Path_360" data-name="Path 360" d="M140.156,131.831l-4.089-3.748a.341.341,0,0,0-.571.251v.681a.34.34,0,0,0,.113.253l2.369,2.132h-9.637a.341.341,0,0,0-.341.341v.682a.341.341,0,0,0,.341.341h9.637l-2.369,2.132a.34.34,0,0,0-.113.253v.681a.34.34,0,0,0,.2.312.336.336,0,0,0,.137.029.342.342,0,0,0,.23-.089l4.089-3.748a.341.341,0,0,0,0-.5Z" transform="translate(-123.911 -123.905)" fill="#fff"/>
  </g>
</svg>
